<?xml version="1.0" encoding="utf-8"?>
<!-- Generator: Adobe Illustrator 16.0.0, SVG Export Plug-In . SVG Version: 6.00 Build 0)  -->
<!DOCTYPE svg PUBLIC "-//W3C//DTD SVG 1.1//EN" "http://www.w3.org/Graphics/SVG/1.1/DTD/svg11.dtd">
<svg version="1.1" id="Download" xmlns="http://www.w3.org/2000/svg" xmlns:xlink="http://www.w3.org/1999/xlink" x="0px" y="0px"
	 width="512px" height="512px" viewBox="0 0 512 512" enable-background="new 0 0 512 512" xml:space="preserve">
<circle id="Background_33_" fill="#43B8C8" cx="256" cy="256" r="256"/>
<path id="Shadow_34_" opacity="0.1" d="M129.826,259.161l231.118,230.404c72.694-32.714,127.349-98.368,144.979-177.949
	L344.73,152.769L129.826,259.161z"/>
<g id="Download_1_">
	<polygon fill="#FDC00F" points="266.711,323.554 266.711,192.254 245.289,192.254 245.289,323.554 221.819,323.554 256,382.744 
		290.181,323.554 	"/>
	<path fill="#FFFFFF" d="M361.34,193.058h-8.711c1.113-4.02,1.711-8.254,1.711-12.628c0-26.061-21.127-47.187-47.186-47.187
		c-12.279,0-23.459,4.69-31.854,12.375c-10.516-10.13-24.813-16.362-40.568-16.362c-30.61,0-55.725,23.518-58.269,53.47
		c-4.539-1.488-9.387-2.296-14.424-2.296c-25.555,0-46.271,20.716-46.271,46.27c0,24.169,18.531,44.006,42.159,46.087
		c9.02,10.97,22.695,17.966,38.006,17.966c9.885,0,19.087-2.918,26.796-7.938c6.112,4.961,13.899,7.938,22.386,7.938
		c10.66,0,20.218-4.698,26.733-12.129c9.184,8.751,21.615,14.125,35.305,14.125c18.525,0,34.754-9.847,43.736-24.592h10.449
		c19.27,0,34.891-15.621,34.891-34.891v-5.317C396.23,208.679,380.609,193.058,361.34,193.058z"/>
</g>
</svg>
